<svg xmlns="http://www.w3.org/2000/svg" tabindex="0"><g transform="matrix(1,0,0,1, 0, 0)"><g transform="matrix(1,0,0,-1, 0,0)"><g><path id="boundaryCurve" fill="none" d="M 13.3369140625 91 L 82.3095703125 91 A 3,3 0 0 1 85.3095703125 94 L 85.3095703125 104.4 A 3,3 0 0 1 82.3095703125 107.4 L 13.3369140625 107.4 A 3,3 0 0 1 10.3369140625 104.4 L 10.3369140625 94 A 3,3 0 0 1 13.3369140625 91" stroke="Black" stroke-width="1"/><text id="nodeLabel" text-anchor="middle" x="47.8232421875" fill="Black" font-family="Times-Roman" font-size="12px" transform="scale(1,-1)"><tspan id="0" text-anchor="middle" x="47.8232421875" alignment-baseline="middle" y="-99.2">long label for a</tspan></text></g><g><path id="boundaryCurve" fill="none" d="M 13 64 L 82.646484375 64 A 3,3 0 0 1 85.646484375 67 L 85.646484375 77.39999999999999 A 3,3 0 0 1 82.646484375 80.39999999999999 L 13 80.39999999999999 A 3,3 0 0 1 10 77.39999999999999 L 10 67 A 3,3 0 0 1 13 64" stroke="Black" stroke-width="1"/><text id="nodeLabel" text-anchor="middle" x="47.8232421875" fill="Black" font-family="Times-Roman" font-size="12px" transform="scale(1,-1)"><tspan id="0" text-anchor="middle" x="47.8232421875" alignment-baseline="middle" y="-72.19999999999999">long label for b</tspan></text></g><g><path id="boundaryCurve" fill="none" d="M 13.3369140625 36.99999999999999 L 82.3095703125 37 A 3,3 0 0 1 85.3095703125 40 L 85.3095703125 50.39999999999999 A 3,3 0 0 1 82.3095703125 53.39999999999999 L 13.3369140625 53.39999999999999 A 3,3 0 0 1 10.3369140625 50.39999999999999 L 10.3369140625 39.99999999999999 A 3,3 0 0 1 13.3369140625 36.99999999999999" stroke="Black" stroke-width="1"/><text id="nodeLabel" text-anchor="middle" x="47.8232421875" fill="Black" font-family="Times-Roman" font-size="12px" transform="scale(1,-1)"><tspan id="0" text-anchor="middle" x="47.8232421875" alignment-baseline="middle" y="-45.19999999999999">long label for c</tspan></text></g><g><path id="boundaryCurve" fill="none" d="M 13.3369140625 9.999999999999996 L 82.3095703125 9.999999999999995 A 3,3 0 0 1 85.3095703125 12.999999999999996 L 85.3095703125 23.399999999999995 A 3,3 0 0 1 82.3095703125 26.399999999999995 L 13.3369140625 26.399999999999995 A 3,3 0 0 1 10.3369140625 23.399999999999995 L 10.3369140625 12.999999999999996 A 3,3 0 0 1 13.3369140625 9.999999999999996" stroke="Black" stroke-width="1"/><text id="nodeLabel" text-anchor="middle" x="47.8232421875" fill="Black" font-family="Times-Roman" font-size="12px" transform="scale(1,-1)"><tspan id="0" text-anchor="middle" x="47.8232421875" alignment-baseline="middle" y="-18.199999999999996">long label for e</tspan></text></g><g><path id="boundaryCurve" fill="none" d="M 118.646484375 36.999999999999986 L 162.96875 36.99999999999999 A 3,3 0 0 1 165.96875 39.99999999999999 L 165.96875 50.39999999999999 A 3,3 0 0 1 162.96875 53.39999999999999 L 118.646484375 53.39999999999999 A 3,3 0 0 1 115.646484375 50.39999999999999 L 115.646484375 39.999999999999986 A 3,3 0 0 1 118.646484375 36.999999999999986" stroke="Black" stroke-width="1"/><text id="nodeLabel" text-anchor="middle" x="140.8076171875" fill="Black" font-family="Times-Roman" font-size="12px" transform="scale(1,-1)"><tspan id="0" text-anchor="middle" x="140.8076171875" alignment-baseline="middle" y="-45.19999999999999">sync node</tspan></text></g><g><path id="curve" fill="none" stroke="Black" stroke-opacity="1" stroke-width="1" d="M 70.41268597036287 91.00000000000001 C83.21234266294528 85.9802843962192 97.87174658608149 77.29609851613809 114.39089773977128 64.94744235975665 L 125.83351028330708 56.39368033432358"/><polygon id="targetArr" stroke="Black" stroke-opacity="1" stroke-width="1" points="126.49719323508575 57.28150803474046 129.83824224136424 53.39999999999999 125.16982733152841 55.50585263390669"/></g><g><path id="curve" fill="none" stroke="Black" stroke-opacity="1" stroke-width="1" d="M 76.06294126157411 64 L 111.52920868163199 53.70161147675012"/><polygon id="targetArr" stroke="Black" stroke-opacity="1" stroke-width="1" points="111.83831023719263 54.7661157343551 116.33087708859523 52.30734446158753 111.22010712607134 52.637107219145136"/></g><g><path id="curve" fill="none" stroke="Black" stroke-opacity="1" stroke-width="1" d="M 85.3095703125 45.19999999999999 L 110.646484375 45.19999999999999"/><polygon id="targetArr" stroke="Black" stroke-opacity="1" stroke-width="1" points="110.646484375 46.30847331321469 115.646484375 45.19999999999999 110.646484375 44.091526686785286"/></g><g><path id="curve" fill="none" stroke="Black" stroke-opacity="1" stroke-width="1" d="M 76.06294126157411 26.399999999999995 L 111.52920868163199 36.69838852324987"/><polygon id="targetArr" stroke="Black" stroke-opacity="1" stroke-width="1" points="111.22010712607134 37.76289278085485 116.33087708859523 38.09265553841245 111.83831023719263 35.63388426564489"/></g></g></g></svg>