<svg xmlns="http://www.w3.org/2000/svg" tabindex="0"><g transform="matrix(1,0,0,1, 0, 0)"><g transform="matrix(1,0,0,-1, 0,0)"><g><path id="boundaryCurve" fill="none" d="M 23.000000000000014 20 L 57.648437500000014 20 A 3,3 0 0 1 60.648437500000014 23 L 60.648437500000014 33.400000000000006 A 3,3 0 0 1 57.648437500000014 36.400000000000006 L 23.000000000000014 36.40000000000001 A 3,3 0 0 1 20.000000000000014 33.400000000000006 L 20 23 A 3,3 0 0 1 23.000000000000014 20" stroke="Black" stroke-width="1"/><text id="nodeLabel" text-anchor="middle" x="40.32421875000001" fill="Black" font-family="Times-Roman" font-size="12px" transform="scale(1,-1)"><tspan id="0" text-anchor="middle" x="40.32421875000001" alignment-baseline="middle" y="-28.200000000000006">kspacey</tspan></text></g><g><path id="boundaryCurve" fill="none" d="M 83.85582125883414 49.6165236394723 L 125.85777438383411 49.6165236394723 A 3,3 0 0 1 128.8577743838341 52.616523639472305 L 128.8577743838341 63.016523639472304 A 3,3 0 0 1 125.85777438383411 66.0165236394723 L 83.85582125883414 66.0165236394723 A 3,3 0 0 1 80.85582125883414 63.016523639472304 L 80.85582125883414 52.616523639472305 A 3,3 0 0 1 83.85582125883414 49.616523639472305" stroke="Black" stroke-width="1"/><text id="nodeLabel" text-anchor="middle" x="104.85679782133413" fill="Black" font-family="Times-Roman" font-size="12px" transform="scale(1,-1)"><tspan id="0" text-anchor="middle" x="104.85679782133413" alignment-baseline="middle" y="-57.816523639472294">swilliams</tspan></text></g><g><path id="boundaryCurve" fill="none" d="M 152.70963162301769 81.11099527936094 L 183.36197537301769 81.11099527936094 A 3,3 0 0 1 186.36197537301769 84.11099527936094 L 186.36197537301769 94.51099527936094 A 3,3 0 0 1 183.36197537301769 97.51099527936094 L 152.70963162301769 97.51099527936094 A 3,3 0 0 1 149.70963162301769 94.51099527936094 L 149.70963162301769 84.11099527936094 A 3,3 0 0 1 152.70963162301769 81.11099527936094" stroke="Black" stroke-width="1"/><text id="nodeLabel" text-anchor="middle" x="168.03580349801769" fill="Black" font-family="Times-Roman" font-size="12px" transform="scale(1,-1)"><tspan id="0" text-anchor="middle" x="168.03580349801769" alignment-baseline="middle" y="-89.31099527936094">kbacon</tspan></text></g><g><path id="boundaryCurve" fill="none" d="M 158.06819225929155 118.09786705870332 L 176.07014538429155 118.09786705870332 A 3,3 0 0 1 179.07014538429155 121.09786705870332 L 179.07014538429155 131.49786705870326 A 3,3 0 0 1 176.07014538429155 134.49786705870326 L 158.06819225929155 134.49786705870326 A 3,3 0 0 1 155.06819225929155 131.49786705870326 L 155.06819225929158 121.09786705870332 A 3,3 0 0 1 158.06819225929155 118.09786705870332" stroke="Black" stroke-width="1"/><text id="nodeLabel" text-anchor="middle" x="167.06916882179155" fill="Black" font-family="Times-Roman" font-size="12px" transform="scale(1,-1)"><tspan id="0" text-anchor="middle" x="167.06916882179155" alignment-baseline="middle" y="-126.29786705870329">bpitt</tspan></text></g><g><path id="boundaryCurve" fill="none" d="M 268.27924450184685 52.69070741936072 L 290.27143200184685 52.69070741936072 A 3,3 0 0 1 293.27143200184685 55.69070741936072 L 293.27143200184685 66.09070741936073 A 3,3 0 0 1 290.27143200184685 69.09070741936073 L 268.27924450184685 69.09070741936073 A 3,3 0 0 1 265.27924450184685 66.09070741936073 L 265.27924450184685 55.69070741936072 A 3,3 0 0 1 268.27924450184685 52.69070741936072" stroke="Black" stroke-width="1"/><text id="nodeLabel" text-anchor="middle" x="279.27533825184685" fill="Black" font-family="Times-Roman" font-size="12px" transform="scale(1,-1)"><tspan id="0" text-anchor="middle" x="279.27533825184685" alignment-baseline="middle" y="-60.89070741936072">hford</tspan></text></g><g><path id="boundaryCurve" fill="none" d="M 210.19711363507628 68.41700488464295 L 241.53500426007628 68.41700488464295 A 3,3 0 0 1 244.53500426007628 71.41700488464295 L 244.53500426007628 81.81700488464296 A 3,3 0 0 1 241.53500426007628 84.81700488464296 L 210.19711363507628 84.81700488464294 A 3,3 0 0 1 207.19711363507628 81.81700488464296 L 207.19711363507628 71.41700488464295 A 3,3 0 0 1 210.19711363507628 68.41700488464295" stroke="Black" stroke-width="1"/><text id="nodeLabel" text-anchor="middle" x="225.86605894757628" fill="Black" font-family="Times-Roman" font-size="12px" transform="scale(1,-1)"><tspan id="0" text-anchor="middle" x="225.86605894757628" alignment-baseline="middle" y="-76.61700488464294">lwilson</tspan></text></g><g><path id="curve" fill="none" stroke="Black" stroke-opacity="1" stroke-width="1" d="M 58.11274789684503 36.36385152384219 L 86.9895033735929 49.6165236394723"/></g><g><path id="curve" fill="none" stroke="Black" stroke-opacity="1" stroke-width="1" d="M 121.30628306663216 66.0165236394723 L 151.84293345171753 81.23891688908937"/></g><g><path id="curve" fill="none" stroke="Black" stroke-opacity="1" stroke-width="1" d="M 167.28347200461658 118.09786705870332 L 167.82150031519265 97.51099527936094"/></g><g><path id="curve" fill="none" stroke="Black" stroke-opacity="1" stroke-width="1" d="M 265.27924450184685 65.01184023619837 L 244.5206784795482 71.12417480561965"/></g><g><path id="curve" fill="none" stroke="Black" stroke-opacity="1" stroke-width="1" d="M 207.19711363507628 80.71491886814756 L 186.36197537301769 85.28832154318644"/></g></g></g></svg>